<?xml version="1.0" encoding="UTF-8"?>
<svg id="Layer_2" data-name="Layer 2" xmlns="http://www.w3.org/2000/svg" viewBox="0 0 2283.62 357.36">
  <g id="Layer_1-2" data-name="Layer 1">
    <g>
      <g>
        <polygon points="643.35 190.14 737.17 190.14 737.17 156.95 643.35 156.95 643.35 92.17 743.23 92.17 743.23 58.98 643.35 58.98 636.96 58.98 605.37 58.98 605.37 291.94 636.96 291.94 643.35 291.94 746.1 291.94 746.1 258.75 643.35 258.75 643.35 190.14"/>
        <path d="M911.67,172.4c5.84-3.3,10.79-7.48,14.81-12.58,6.7-8.51,10.05-20,10.05-34.46v-4.47c0-20.42-6.6-36.11-19.79-47.07-13.19-10.96-32.77-16.43-58.72-16.43h-79.78v235.84h89.36c17.44,0,31.96-2.5,43.56-7.5,11.59-5,20.31-12.34,26.17-22.02,5.85-9.68,8.78-21.33,8.78-34.94v-4.47c0-14.68-3.41-26.27-10.21-34.78-6.1-7.62-14.19-13.32-24.22-17.1ZM862.81,89.3c12.13,0,21.01,3.25,26.65,9.73,5.63,6.49,8.46,14.95,8.46,25.37s-2.82,18.56-8.46,25.05c-5.64,6.49-14.52,9.73-26.65,9.73h-46.59v-69.89h46.59ZM898.07,251.73c-6.28,6.38-15.16,9.57-26.65,9.57h-55.21v-71.48h55.21c11.7,0,20.63,3.14,26.81,9.41,6.17,6.28,9.26,15.05,9.26,26.33s-3.14,19.79-9.41,26.17Z"/>
        <path d="M995.5,96c7.87,0,13.67-2.02,17.39-6.06,3.72-4.04,5.58-9.25,5.58-15.64s-1.87-11.33-5.58-15.48c-3.72-4.15-9.52-6.22-17.39-6.22s-13.35,2.07-17.07,6.22c-3.72,4.15-5.58,9.31-5.58,15.48s1.86,11.6,5.58,15.64c3.72,4.05,9.41,6.06,17.07,6.06Z"/>
        <polygon points="958.16 119.93 958.16 148.65 983.37 148.65 983.37 291.94 1020.71 291.94 1020.71 148.65 1020.71 119.93 983.37 119.93 958.16 119.93"/>
        <polygon points="1172.83 154.72 1172.83 119.93 1046.14 119.93 1046.14 149.29 1131.7 149.29 1046.78 257.16 1046.78 291.94 1176.98 291.94 1176.98 262.58 1087.5 262.58 1172.83 154.72"/>
        <polygon points="1206.6 58.98 1206.6 291.94 1223.83 291.94 1223.83 180.85 1324.03 180.25 1324.03 164.61 1223.83 164.91 1223.83 74.62 1330.42 74.62 1330.42 58.66 1217.77 58.98 1206.6 58.98"/>
        <path d="M1469.78,226.52c0,16.17-4.63,29.26-13.88,39.25-9.25,10-21.76,15-37.5,15s-27.4-4.84-35.58-14.52c-8.19-9.68-12.29-22.28-12.29-37.82v-104.03h-17.23v100.2c0,22.13,5.21,39.68,15.64,52.66,10.42,12.98,25.74,19.47,45.95,19.47h.96c13.83,0,25.21-3.03,34.15-9.09,8.93-6.06,15.69-14.57,20.27-25.53,1.16-2.78,2.17-5.66,3.03-8.65v38.49h13.4V124.4h-16.91v102.12Z"/>
        <path d="M1597.47,119.93h-.96c-14.04,0-25.8,3.03-35.26,9.09-9.47,6.06-16.6,14.57-21.38,25.53-1.3,2.97-2.4,6.09-3.35,9.33v-39.49h-13.4v167.54h16.91v-101.16c0-16.6,4.84-29.95,14.52-40.05,9.68-10.1,22.71-15.16,39.09-15.16s28.56,4.95,37.18,14.84c8.62,9.89,12.92,22.82,12.92,38.77v102.76h17.23v-98.93c0-22.55-5.32-40.37-15.96-53.45-10.64-13.08-26.49-19.63-47.55-19.63Z"/>
        <path d="M1833.22,160.35c-.47-.98-.93-1.96-1.43-2.92-6.28-11.81-15-21.11-26.17-27.92-11.17-6.81-24.31-10.21-39.41-10.21-12.98,0-24.47,2.45-34.46,7.34-10.01,4.89-18.46,11.54-25.37,19.94-6.92,8.41-12.18,17.77-15.8,28.09-3.62,10.32-5.42,21.01-5.42,32.07v3.19c0,11.49,1.86,22.45,5.58,32.87,3.72,10.43,9.09,19.74,16.12,27.93,7.02,8.19,15.58,14.68,25.69,19.47,10.1,4.79,21.43,7.18,33.99,7.18,14.68,0,27.71-3.3,39.09-9.89,11.38-6.59,20.37-15.9,26.97-27.93,1.56-2.84,2.93-5.8,4.15-8.87v41.26h13.4V58.98h-16.91v101.37ZM1834.18,215.99c0,12.76-2.82,24.09-8.46,33.99-5.64,9.89-13.4,17.71-23.3,23.46-9.89,5.74-21.33,8.61-34.31,8.61-13.62,0-25.37-3.29-35.26-9.89-9.89-6.59-17.5-15.48-22.82-26.65-5.32-11.17-7.98-23.56-7.98-37.18s2.6-25.37,7.82-36.54c5.21-11.17,12.71-20.16,22.5-26.97,9.78-6.81,21.7-10.21,35.74-10.21,12.97,0,24.41,2.87,34.31,8.62,9.89,5.74,17.66,13.51,23.3,23.3,5.63,9.79,8.46,20.74,8.46,32.87v16.6Z"/>
        <path d="M1903.05,89.3c4.89,0,8.46-1.22,10.69-3.67,2.23-2.44,3.35-5.59,3.35-9.41,0-4.04-1.17-7.34-3.51-9.89-2.35-2.55-5.74-3.83-10.21-3.83s-8.19,1.28-10.53,3.83c-2.35,2.55-3.51,5.85-3.51,9.89,0,3.83,1.16,6.97,3.51,9.41,2.34,2.45,5.74,3.67,10.21,3.67Z"/>
        <polygon points="1873.69 124.4 1873.69 139.08 1901.45 139.08 1901.45 291.94 1918.68 291.94 1918.68 139.08 1918.68 124.4 1901.45 124.4 1873.69 124.4"/>
        <path d="M2029.34,119.93h-.96c-14.04,0-25.8,3.03-35.26,9.09-9.47,6.06-16.6,14.57-21.38,25.53-1.3,2.97-2.4,6.09-3.35,9.33v-39.49h-13.4v167.54h16.91v-101.16c0-16.6,4.84-29.95,14.52-40.05,9.68-10.1,22.71-15.16,39.09-15.16s28.56,4.95,37.18,14.84c8.62,9.89,12.92,22.82,12.92,38.77v102.76h17.23v-98.93c0-22.55-5.32-40.37-15.96-53.45-10.64-13.08-26.49-19.63-47.55-19.63Z"/>
        <path d="M2269.89,124.4v40.59c-.92-2.29-1.91-4.55-3.03-6.76-6.06-11.91-14.74-21.38-26.01-28.4-11.28-7.02-24.68-10.53-40.21-10.53-12.77,0-24.15,2.4-34.15,7.18-10,4.79-18.4,11.28-25.21,19.47-6.81,8.19-12.02,17.45-15.64,27.77-3.62,10.32-5.42,20.9-5.42,31.75v3.19c0,11.07,1.8,21.86,5.42,32.39,3.62,10.53,8.83,19.9,15.64,28.08,6.81,8.19,15.16,14.68,25.05,19.47,9.89,4.78,21.11,7.18,33.67,7.18,14.89,0,27.87-3.35,38.93-10.05,11.06-6.7,19.73-15.9,26.01-27.61.73-1.37,1.42-2.77,2.07-4.19v21.43c0,16.38-2.13,29.52-6.38,39.41-4.26,9.89-11.28,17.02-21.06,21.38-9.79,4.36-23.19,6.54-40.21,6.54-7.45,0-15.37-.37-23.78-1.12-8.41-.75-16.43-1.75-24.09-3.03v15c7.44,1.27,15.21,2.23,23.3,2.87,8.08.64,15.85.96,23.3.96,20.85,0,37.55-2.66,50.1-7.98,12.55-5.32,21.59-13.99,27.13-26.01,5.53-12.02,8.3-28.03,8.3-48.03V124.4h-13.72ZM2259.04,248.38c-5.54,9.89-13.19,17.66-22.98,23.3-9.79,5.64-21.06,8.46-33.83,8.46-13.4,0-24.95-3.24-34.62-9.73-9.68-6.49-17.18-15.32-22.5-26.49-5.32-11.17-7.98-23.46-7.98-36.86s2.55-25,7.66-36.06c5.11-11.06,12.5-20,22.18-26.81,9.68-6.81,21.54-10.21,35.58-10.21,12.76,0,24.04,2.87,33.83,8.62,9.78,5.74,17.39,13.46,22.82,23.14,5.42,9.68,8.14,20.58,8.14,32.71v16.28c0,12.55-2.77,23.78-8.3,33.67Z"/>
      </g>
      <path d="M470.11,254.56c0,31.9-9.17,55.97-27.47,72.12-2.15,1.88-4.43,3.67-6.76,5.28-17.81,12.66-41.61,18.97-71.54,18.97h-104.87v-48.94h110.73c6.26,0,12.48-.63,18.52-2.55,7.2-2.24,13.38-5.59,18.57-10.02,10.56-9.08,15.88-22.37,15.88-39.82s-5.32-30.47-15.88-40c-10.56-9.62-28.59-12.08-47.51-12.08h-83.57l-41.61,48.59h-57.4l41.61-48.59H49.88l-.98,104.46h161.68v48.94H0V0h210.58v48.99H48.9l.98,101.06h168.22l-39.59-46.26h57.35l39.59,46.26h71.67c2.68,0,5.28-.09,7.83-.18,16.28-1.12,29.48-5.77,39.01-13.47,11.01-8.9,16.51-21.39,16.51-37.54,0-17.13-5.28-29.93-15.88-38.3-5.06-4.03-11.27-7.07-18.66-9.17-6.31-1.79-12.8-2.42-19.24-2.42h-97.22V0h88.81c36.1,0,63.3,7.65,81.65,22.77,2.1,1.74,4.07,3.62,5.95,5.59,14.36,15.21,21.52,37.4,21.52,66.57,0,14.81-2.68,27.83-8.01,39.06-5.37,11.14-13.2,19.95-23.44,26.44-7.43,4.61-15.75,7.61-25.1,9.04,19.95,2.59,35.93,10.42,47.91,23.53,14.18,15.61,21.34,36.19,21.34,61.56Z"/>
    </g>
  </g>
</svg>